<svg xmlns="http://www.w3.org/2000/svg" viewBox="-3 -3 26 26" shape-rendering="crispEdges"><rect x="-3" y="-3" width="26" height="26" rx="6.24" fill="#c4472c" shape-rendering="geometricPrecision"/><rect x="6" y="1" width="1.03" height="1.03" fill="#faf5ee"/><rect x="12" y="1" width="1.03" height="1.03" fill="#faf5ee"/><rect x="5" y="2" width="1.03" height="1.03" fill="#faf5ee"/><rect x="11" y="2" width="1.03" height="1.03" fill="#faf5ee"/><rect x="6" y="3" width="1.03" height="1.03" fill="#faf5ee"/><rect x="12" y="3" width="1.03" height="1.03" fill="#faf5ee"/><rect x="5" y="4" width="1.03" height="1.03" fill="#faf5ee"/><rect x="11" y="4" width="1.03" height="1.03" fill="#faf5ee"/><rect x="3" y="6" width="1.03" height="1.03" fill="#2a1d14"/><rect x="4" y="6" width="1.03" height="1.03" fill="#2a1d14"/><rect x="5" y="6" width="1.03" height="1.03" fill="#2a1d14"/><rect x="6" y="6" width="1.03" height="1.03" fill="#2a1d14"/><rect x="7" y="6" width="1.03" height="1.03" fill="#2a1d14"/><rect x="8" y="6" width="1.03" height="1.03" fill="#2a1d14"/><rect x="9" y="6" width="1.03" height="1.03" fill="#2a1d14"/><rect x="10" y="6" width="1.03" height="1.03" fill="#2a1d14"/><rect x="11" y="6" width="1.03" height="1.03" fill="#2a1d14"/><rect x="12" y="6" width="1.03" height="1.03" fill="#2a1d14"/><rect x="13" y="6" width="1.03" height="1.03" fill="#2a1d14"/><rect x="14" y="6" width="1.03" height="1.03" fill="#2a1d14"/><rect x="15" y="6" width="1.03" height="1.03" fill="#2a1d14"/><rect x="16" y="6" width="1.03" height="1.03" fill="#2a1d14"/><rect x="2" y="7" width="1.03" height="1.03" fill="#2a1d14"/><rect x="3" y="7" width="1.03" height="1.03" fill="#faf5ee"/><rect x="4" y="7" width="1.03" height="1.03" fill="#faf5ee"/><rect x="5" y="7" width="1.03" height="1.03" fill="#eaa936"/><rect x="6" y="7" width="1.03" height="1.03" fill="#faf5ee"/><rect x="7" y="7" width="1.03" height="1.03" fill="#faf5ee"/><rect x="8" y="7" width="1.03" height="1.03" fill="#faf5ee"/><rect x="9" y="7" width="1.03" height="1.03" fill="#5f9440"/><rect x="10" y="7" width="1.03" height="1.03" fill="#faf5ee"/><rect x="11" y="7" width="1.03" height="1.03" fill="#faf5ee"/><rect x="12" y="7" width="1.03" height="1.03" fill="#faf5ee"/><rect x="13" y="7" width="1.03" height="1.03" fill="#eaa936"/><rect x="14" y="7" width="1.03" height="1.03" fill="#faf5ee"/><rect x="15" y="7" width="1.03" height="1.03" fill="#faf5ee"/><rect x="16" y="7" width="1.03" height="1.03" fill="#faf5ee"/><rect x="17" y="7" width="1.03" height="1.03" fill="#2a1d14"/><rect x="1" y="8" width="1.03" height="1.03" fill="#2a1d14"/><rect x="2" y="8" width="1.03" height="1.03" fill="#2a1d14"/><rect x="3" y="8" width="1.03" height="1.03" fill="#2a1d14"/><rect x="4" y="8" width="1.03" height="1.03" fill="#2a1d14"/><rect x="5" y="8" width="1.03" height="1.03" fill="#2a1d14"/><rect x="6" y="8" width="1.03" height="1.03" fill="#2a1d14"/><rect x="7" y="8" width="1.03" height="1.03" fill="#2a1d14"/><rect x="8" y="8" width="1.03" height="1.03" fill="#2a1d14"/><rect x="9" y="8" width="1.03" height="1.03" fill="#2a1d14"/><rect x="10" y="8" width="1.03" height="1.03" fill="#2a1d14"/><rect x="11" y="8" width="1.03" height="1.03" fill="#2a1d14"/><rect x="12" y="8" width="1.03" height="1.03" fill="#2a1d14"/><rect x="13" y="8" width="1.03" height="1.03" fill="#2a1d14"/><rect x="14" y="8" width="1.03" height="1.03" fill="#2a1d14"/><rect x="15" y="8" width="1.03" height="1.03" fill="#2a1d14"/><rect x="16" y="8" width="1.03" height="1.03" fill="#2a1d14"/><rect x="17" y="8" width="1.03" height="1.03" fill="#2a1d14"/><rect x="18" y="8" width="1.03" height="1.03" fill="#2a1d14"/><rect x="0" y="9" width="1.03" height="1.03" fill="#2a1d14"/><rect x="1" y="9" width="1.03" height="1.03" fill="#2a1d14"/><rect x="2" y="9" width="1.03" height="1.03" fill="#f6e6cf"/><rect x="3" y="9" width="1.03" height="1.03" fill="#faf5ee"/><rect x="4" y="9" width="1.03" height="1.03" fill="#f6e6cf"/><rect x="5" y="9" width="1.03" height="1.03" fill="#f6e6cf"/><rect x="6" y="9" width="1.03" height="1.03" fill="#f6e6cf"/><rect x="7" y="9" width="1.03" height="1.03" fill="#f6e6cf"/><rect x="8" y="9" width="1.03" height="1.03" fill="#f6e6cf"/><rect x="9" y="9" width="1.03" height="1.03" fill="#f6e6cf"/><rect x="10" y="9" width="1.03" height="1.03" fill="#f6e6cf"/><rect x="11" y="9" width="1.03" height="1.03" fill="#f6e6cf"/><rect x="12" y="9" width="1.03" height="1.03" fill="#f6e6cf"/><rect x="13" y="9" width="1.03" height="1.03" fill="#f6e6cf"/><rect x="14" y="9" width="1.03" height="1.03" fill="#f6e6cf"/><rect x="15" y="9" width="1.03" height="1.03" fill="#f6e6cf"/><rect x="16" y="9" width="1.03" height="1.03" fill="#dcbc94"/><rect x="17" y="9" width="1.03" height="1.03" fill="#f6e6cf"/><rect x="18" y="9" width="1.03" height="1.03" fill="#2a1d14"/><rect x="19" y="9" width="1.03" height="1.03" fill="#2a1d14"/><rect x="0" y="10" width="1.03" height="1.03" fill="#2a1d14"/><rect x="2" y="10" width="1.03" height="1.03" fill="#2a1d14"/><rect x="3" y="10" width="1.03" height="1.03" fill="#faf5ee"/><rect x="4" y="10" width="1.03" height="1.03" fill="#f6e6cf"/><rect x="5" y="10" width="1.03" height="1.03" fill="#f6e6cf"/><rect x="6" y="10" width="1.03" height="1.03" fill="#f6e6cf"/><rect x="7" y="10" width="1.03" height="1.03" fill="#f6e6cf"/><rect x="8" y="10" width="1.03" height="1.03" fill="#f6e6cf"/><rect x="9" y="10" width="1.03" height="1.03" fill="#f6e6cf"/><rect x="10" y="10" width="1.03" height="1.03" fill="#f6e6cf"/><rect x="11" y="10" width="1.03" height="1.03" fill="#f6e6cf"/><rect x="12" y="10" width="1.03" height="1.03" fill="#f6e6cf"/><rect x="13" y="10" width="1.03" height="1.03" fill="#f6e6cf"/><rect x="14" y="10" width="1.03" height="1.03" fill="#f6e6cf"/><rect x="15" y="10" width="1.03" height="1.03" fill="#f6e6cf"/><rect x="16" y="10" width="1.03" height="1.03" fill="#dcbc94"/><rect x="17" y="10" width="1.03" height="1.03" fill="#2a1d14"/><rect x="19" y="10" width="1.03" height="1.03" fill="#2a1d14"/><rect x="0" y="11" width="1.03" height="1.03" fill="#2a1d14"/><rect x="1" y="11" width="1.03" height="1.03" fill="#2a1d14"/><rect x="2" y="11" width="1.03" height="1.03" fill="#2a1d14"/><rect x="3" y="11" width="1.03" height="1.03" fill="#faf5ee"/><rect x="4" y="11" width="1.03" height="1.03" fill="#f6e6cf"/><rect x="5" y="11" width="1.03" height="1.03" fill="#f6e6cf"/><rect x="6" y="11" width="1.03" height="1.03" fill="#f6e6cf"/><rect x="7" y="11" width="1.03" height="1.03" fill="#f6e6cf"/><rect x="8" y="11" width="1.03" height="1.03" fill="#f6e6cf"/><rect x="9" y="11" width="1.03" height="1.03" fill="#f6e6cf"/><rect x="10" y="11" width="1.03" height="1.03" fill="#f6e6cf"/><rect x="11" y="11" width="1.03" height="1.03" fill="#f6e6cf"/><rect x="12" y="11" width="1.03" height="1.03" fill="#f6e6cf"/><rect x="13" y="11" width="1.03" height="1.03" fill="#f6e6cf"/><rect x="14" y="11" width="1.03" height="1.03" fill="#f6e6cf"/><rect x="15" y="11" width="1.03" height="1.03" fill="#f6e6cf"/><rect x="16" y="11" width="1.03" height="1.03" fill="#dcbc94"/><rect x="17" y="11" width="1.03" height="1.03" fill="#2a1d14"/><rect x="18" y="11" width="1.03" height="1.03" fill="#2a1d14"/><rect x="19" y="11" width="1.03" height="1.03" fill="#2a1d14"/><rect x="2" y="12" width="1.03" height="1.03" fill="#2a1d14"/><rect x="3" y="12" width="1.03" height="1.03" fill="#f6e6cf"/><rect x="4" y="12" width="1.03" height="1.03" fill="#f6e6cf"/><rect x="5" y="12" width="1.03" height="1.03" fill="#f6e6cf"/><rect x="6" y="12" width="1.03" height="1.03" fill="#f6e6cf"/><rect x="7" y="12" width="1.03" height="1.03" fill="#f6e6cf"/><rect x="8" y="12" width="1.03" height="1.03" fill="#f6e6cf"/><rect x="9" y="12" width="1.03" height="1.03" fill="#f6e6cf"/><rect x="10" y="12" width="1.03" height="1.03" fill="#f6e6cf"/><rect x="11" y="12" width="1.03" height="1.03" fill="#f6e6cf"/><rect x="12" y="12" width="1.03" height="1.03" fill="#f6e6cf"/><rect x="13" y="12" width="1.03" height="1.03" fill="#f6e6cf"/><rect x="14" y="12" width="1.03" height="1.03" fill="#f6e6cf"/><rect x="15" y="12" width="1.03" height="1.03" fill="#f6e6cf"/><rect x="16" y="12" width="1.03" height="1.03" fill="#dcbc94"/><rect x="17" y="12" width="1.03" height="1.03" fill="#2a1d14"/><rect x="2" y="13" width="1.03" height="1.03" fill="#2a1d14"/><rect x="3" y="13" width="1.03" height="1.03" fill="#f6e6cf"/><rect x="4" y="13" width="1.03" height="1.03" fill="#f6e6cf"/><rect x="5" y="13" width="1.03" height="1.03" fill="#f6e6cf"/><rect x="6" y="13" width="1.03" height="1.03" fill="#f6e6cf"/><rect x="7" y="13" width="1.03" height="1.03" fill="#f6e6cf"/><rect x="8" y="13" width="1.03" height="1.03" fill="#f6e6cf"/><rect x="9" y="13" width="1.03" height="1.03" fill="#f6e6cf"/><rect x="10" y="13" width="1.03" height="1.03" fill="#f6e6cf"/><rect x="11" y="13" width="1.03" height="1.03" fill="#f6e6cf"/><rect x="12" y="13" width="1.03" height="1.03" fill="#f6e6cf"/><rect x="13" y="13" width="1.03" height="1.03" fill="#f6e6cf"/><rect x="14" y="13" width="1.03" height="1.03" fill="#f6e6cf"/><rect x="15" y="13" width="1.03" height="1.03" fill="#dcbc94"/><rect x="16" y="13" width="1.03" height="1.03" fill="#dcbc94"/><rect x="17" y="13" width="1.03" height="1.03" fill="#2a1d14"/><rect x="3" y="14" width="1.03" height="1.03" fill="#2a1d14"/><rect x="4" y="14" width="1.03" height="1.03" fill="#f6e6cf"/><rect x="5" y="14" width="1.03" height="1.03" fill="#f6e6cf"/><rect x="6" y="14" width="1.03" height="1.03" fill="#f6e6cf"/><rect x="7" y="14" width="1.03" height="1.03" fill="#f6e6cf"/><rect x="8" y="14" width="1.03" height="1.03" fill="#f6e6cf"/><rect x="9" y="14" width="1.03" height="1.03" fill="#f6e6cf"/><rect x="10" y="14" width="1.03" height="1.03" fill="#f6e6cf"/><rect x="11" y="14" width="1.03" height="1.03" fill="#f6e6cf"/><rect x="12" y="14" width="1.03" height="1.03" fill="#f6e6cf"/><rect x="13" y="14" width="1.03" height="1.03" fill="#f6e6cf"/><rect x="14" y="14" width="1.03" height="1.03" fill="#dcbc94"/><rect x="15" y="14" width="1.03" height="1.03" fill="#dcbc94"/><rect x="16" y="14" width="1.03" height="1.03" fill="#2a1d14"/><rect x="3" y="15" width="1.03" height="1.03" fill="#2a1d14"/><rect x="4" y="15" width="1.03" height="1.03" fill="#dcbc94"/><rect x="5" y="15" width="1.03" height="1.03" fill="#f6e6cf"/><rect x="6" y="15" width="1.03" height="1.03" fill="#f6e6cf"/><rect x="7" y="15" width="1.03" height="1.03" fill="#f6e6cf"/><rect x="8" y="15" width="1.03" height="1.03" fill="#f6e6cf"/><rect x="9" y="15" width="1.03" height="1.03" fill="#f6e6cf"/><rect x="10" y="15" width="1.03" height="1.03" fill="#f6e6cf"/><rect x="11" y="15" width="1.03" height="1.03" fill="#f6e6cf"/><rect x="12" y="15" width="1.03" height="1.03" fill="#f6e6cf"/><rect x="13" y="15" width="1.03" height="1.03" fill="#dcbc94"/><rect x="14" y="15" width="1.03" height="1.03" fill="#dcbc94"/><rect x="15" y="15" width="1.03" height="1.03" fill="#dcbc94"/><rect x="16" y="15" width="1.03" height="1.03" fill="#2a1d14"/><rect x="4" y="16" width="1.03" height="1.03" fill="#2a1d14"/><rect x="5" y="16" width="1.03" height="1.03" fill="#dcbc94"/><rect x="6" y="16" width="1.03" height="1.03" fill="#dcbc94"/><rect x="7" y="16" width="1.03" height="1.03" fill="#dcbc94"/><rect x="8" y="16" width="1.03" height="1.03" fill="#dcbc94"/><rect x="9" y="16" width="1.03" height="1.03" fill="#dcbc94"/><rect x="10" y="16" width="1.03" height="1.03" fill="#dcbc94"/><rect x="11" y="16" width="1.03" height="1.03" fill="#dcbc94"/><rect x="12" y="16" width="1.03" height="1.03" fill="#dcbc94"/><rect x="13" y="16" width="1.03" height="1.03" fill="#dcbc94"/><rect x="14" y="16" width="1.03" height="1.03" fill="#dcbc94"/><rect x="15" y="16" width="1.03" height="1.03" fill="#2a1d14"/><rect x="5" y="17" width="1.03" height="1.03" fill="#2a1d14"/><rect x="6" y="17" width="1.03" height="1.03" fill="#2a1d14"/><rect x="7" y="17" width="1.03" height="1.03" fill="#2a1d14"/><rect x="8" y="17" width="1.03" height="1.03" fill="#2a1d14"/><rect x="9" y="17" width="1.03" height="1.03" fill="#2a1d14"/><rect x="10" y="17" width="1.03" height="1.03" fill="#2a1d14"/><rect x="11" y="17" width="1.03" height="1.03" fill="#2a1d14"/><rect x="12" y="17" width="1.03" height="1.03" fill="#2a1d14"/><rect x="13" y="17" width="1.03" height="1.03" fill="#2a1d14"/><rect x="14" y="17" width="1.03" height="1.03" fill="#2a1d14"/></svg>
